# Blender v2.80 (sub 75) OBJ File: ''
# www.blender.org
mtllib MenuWall.mtl
o MenuWall
v -24.610001 2.055000 1.780000
v -27.000000 4.445000 1.780000
v -24.610001 2.055000 3.080000
v -27.000000 4.445000 3.080000
v -27.000000 37.665001 1.780000
v -27.000000 37.665001 3.080000
v -24.610001 40.055000 1.780000
v -24.610001 40.055000 3.080000
v 24.610001 40.055000 1.780000
v 24.610001 40.055000 3.080000
v 27.000000 37.665001 1.780000
v 27.000000 37.665001 3.080000
v 27.000000 4.445000 1.780000
v 27.000000 4.445000 3.080000
v 24.610001 2.055000 1.780000
v 24.610001 2.055000 3.080000
v -27.011076 0.965912 3.080000
v -28.183977 2.213532 3.080000
v -27.011076 0.965912 5.000000
v -28.183977 2.213532 5.000000
v -27.762007 9.041984 3.080000
v 24.765793 0.965912 3.080000
v 28.983965 2.486022 3.080000
v 28.398924 20.502327 3.080000
v 30.558344 42.559250 3.080000
v 14.439822 41.016808 3.080000
v -27.000000 41.803848 3.080000
v -30.026316 29.803848 3.080000
v 24.765793 0.965912 5.000000
v -27.000000 41.803848 5.000000
v -30.026316 29.803848 5.000000
v 14.439822 41.016808 5.000000
v 30.558344 42.559250 5.000000
v 28.398924 20.502327 5.000000
v 28.983965 2.486022 5.000000
v -27.762007 9.041984 5.000000
v -29.000000 0.000000 5.000000
v -36.058048 17.296141 5.000000
v -32.775391 34.803650 5.000000
v -37.052631 41.055000 5.000000
v -5.000000 49.607697 5.000000
v 17.863544 45.055000 5.000000
v 37.000000 48.643085 5.000000
v 34.975624 22.215439 5.000000
v 31.750000 12.055000 5.000000
v 29.000000 0.000000 5.000000
v 29.000000 0.000000 -0.460000
v -29.000000 0.000000 -0.460000
v 31.750000 12.055000 -0.460000
v -5.000000 49.607697 -0.460000
v 17.863544 45.055000 -0.460000
v -36.058048 17.296141 -0.460000
v -32.775391 34.803650 -0.460000
v -37.052631 41.055000 -0.460000
v 37.000000 48.643085 -0.460000
v 34.975624 22.215439 -0.460000
vn 0.7071 0.7071 0.0000
vn 1.0000 0.0000 0.0000
vn 0.7071 -0.7071 0.0000
vn 0.0000 -1.0000 0.0000
vn -0.7071 -0.7071 0.0000
vn -1.0000 0.0000 0.0000
vn -0.7071 0.7071 0.0000
vn 0.0000 0.0000 1.0000
vn 0.7286 0.6850 0.0000
vn 0.0000 1.0000 0.0000
vn 0.9696 -0.2445 0.0000
vn -0.0190 -0.9998 0.0000
vn 0.0953 -0.9955 0.0000
vn -0.9952 0.0974 0.0000
vn -0.9995 -0.0325 0.0000
vn -0.3390 0.9408 0.0000
vn 0.9981 -0.0617 0.0000
vn 0.9941 0.1084 0.0000
vn 0.0000 0.0000 -1.0000
vn -0.9829 0.1843 0.0000
vn -0.9259 -0.3778 0.0000
vn 0.9750 -0.2224 0.0000
vn 0.9531 -0.3026 0.0000
vn 0.9971 -0.0764 0.0000
vn -0.1843 0.9829 0.0000
vn 0.1953 0.9807 0.0000
vn -0.2578 0.9662 0.0000
vn -0.8253 -0.5647 0.0000
usemtl None
s off
f 1//1 2//1 3//1
f 3//1 2//1 4//1
f 2//2 5//2 4//2
f 4//2 5//2 6//2
f 5//3 7//3 6//3
f 6//3 7//3 8//3
f 7//4 9//4 8//4
f 8//4 9//4 10//4
f 9//5 11//5 10//5
f 10//5 11//5 12//5
f 11//6 13//6 12//6
f 12//6 13//6 14//6
f 13//7 15//7 14//7
f 14//7 15//7 16//7
f 2//8 1//8 5//8
f 5//8 1//8 7//8
f 1//8 15//8 7//8
f 7//8 15//8 9//8
f 13//8 11//8 15//8
f 15//8 11//8 9//8
f 17//9 18//9 19//9
f 19//9 18//9 20//9
f 21//8 18//8 4//8
f 4//8 18//8 17//8
f 4//8 17//8 3//8
f 3//8 17//8 22//8
f 3//8 22//8 16//8
f 16//8 22//8 23//8
f 16//8 23//8 14//8
f 14//8 23//8 24//8
f 14//8 24//8 12//8
f 12//8 24//8 25//8
f 12//8 25//8 10//8
f 10//8 25//8 26//8
f 10//8 26//8 8//8
f 8//8 26//8 27//8
f 8//8 27//8 6//8
f 6//8 27//8 28//8
f 6//8 28//8 21//8
f 4//8 6//8 21//8
f 19//10 29//10 17//10
f 17//10 29//10 22//10
f 3//10 16//10 1//10
f 1//10 16//10 15//10
f 30//11 31//11 27//11
f 27//11 31//11 28//11
f 32//12 30//12 26//12
f 26//12 30//12 27//12
f 33//13 32//13 25//13
f 25//13 32//13 26//13
f 34//14 33//14 24//14
f 24//14 33//14 25//14
f 35//15 34//15 23//15
f 23//15 34//15 24//15
f 29//16 35//16 22//16
f 22//16 35//16 23//16
f 18//17 21//17 20//17
f 20//17 21//17 36//17
f 31//18 36//18 28//18
f 28//18 36//18 21//18
f 29//8 19//8 37//8
f 37//8 19//8 20//8
f 37//8 20//8 38//8
f 38//8 20//8 36//8
f 38//8 36//8 31//8
f 38//8 31//8 39//8
f 39//8 31//8 30//8
f 39//8 30//8 40//8
f 40//8 30//8 41//8
f 30//8 32//8 41//8
f 41//8 32//8 42//8
f 32//8 33//8 42//8
f 42//8 33//8 43//8
f 43//8 33//8 44//8
f 44//8 33//8 34//8
f 44//8 34//8 45//8
f 45//8 34//8 35//8
f 45//8 35//8 46//8
f 46//8 35//8 29//8
f 46//8 29//8 37//8
f 47//19 48//19 49//19
f 49//19 48//19 50//19
f 49//19 50//19 51//19
f 48//19 52//19 50//19
f 50//19 52//19 53//19
f 50//19 53//19 54//19
f 55//19 56//19 51//19
f 51//19 56//19 49//19
f 48//4 47//4 37//4
f 37//4 47//4 46//4
f 53//20 52//20 39//20
f 39//20 52//20 38//20
f 52//21 48//21 38//21
f 38//21 48//21 37//21
f 47//22 49//22 46//22
f 46//22 49//22 45//22
f 49//23 56//23 45//23
f 45//23 56//23 44//23
f 56//24 55//24 44//24
f 44//24 55//24 43//24
f 55//25 51//25 43//25
f 43//25 51//25 42//25
f 51//26 50//26 42//26
f 42//26 50//26 41//26
f 50//27 54//27 41//27
f 41//27 54//27 40//27
f 54//28 53//28 40//28
f 40//28 53//28 39//28
